<?xml version="1.0" encoding="utf-8"?>
<!-- Generator: Adobe Illustrator 24.0.0, SVG Export Plug-In . SVG Version: 6.00 Build 0)  -->
<svg version="1.1" id="Layer_1" xmlns="http://www.w3.org/2000/svg" xmlns:xlink="http://www.w3.org/1999/xlink" x="0px" y="0px"
	 viewBox="0 0 488 118" style="enable-background:new 0 0 488 118;" xml:space="preserve">
<path d="M0.81,0.01h24.01v48.13L69.95,0.01h31.54L53.55,48.05l50.39,68.77H72.56L36.57,65.83L24.82,77.75v39.07H0.81V0.01z"/>
<path d="M195.12,0.01h35.12v116.81h-22.74V37.81c0-2.27,0.03-5.45,0.08-9.55c0.05-4.09,0.08-7.25,0.08-9.47l-22.13,98.03H161.8
	l-21.98-98.03c0,2.22,0.03,5.38,0.08,9.47c0.05,4.09,0.08,7.28,0.08,9.55v79.01h-22.74V0.01h35.52l21.26,91.85L195.12,0.01z"/>
<path d="M261.17,116.82V0.01h24.25v44.54h45.41V0.01h24.25v116.81h-24.25V64.67h-45.41v52.14H261.17z"/>
<path d="M456.54,2.55c8.19,2.69,14.83,7.64,19.91,14.82c4.07,5.81,6.85,12.1,8.33,18.86c1.48,6.76,2.22,13.21,2.22,19.34
	c0,15.53-3.12,28.69-9.36,39.46c-8.46,14.53-21.52,21.79-39.18,21.79H388.1V0.01h50.36C445.71,0.12,451.73,0.96,456.54,2.55z
	 M411.79,20.3v76.23h22.54c11.54,0,19.58-5.68,24.13-17.04c2.49-6.23,3.73-13.66,3.73-22.27c0-11.89-1.86-21.01-5.59-27.38
	c-3.73-6.37-11.15-9.55-22.26-9.55H411.79z"/>
</svg>
